<svg xmlns="http://www.w3.org/2000/svg" width="200" height="36" fill="none"><path fill="#111" d="M36.452 35.682a16.137 16.137 0 01-5.488-1.037 17.117 17.117 0 01-4.892-2.774l3.614-5.062a15.704 15.704 0 003.526 2.118 8.864 8.864 0 003.46.72 4.154 4.154 0 002.6-.614c.276-.19.496-.446.64-.741a2.41 2.41 0 00.198-.953 1.781 1.781 0 00-.463-1.186 4.94 4.94 0 00-1.256-.974c-.573-.31-1.17-.58-1.785-.805-.661-.233-1.322-.508-2.006-.783a32.777 32.777 0 01-2.512-1.165 10.815 10.815 0 01-2.204-1.63 7.866 7.866 0 01-1.697-2.267 6.448 6.448 0 01-.66-3.007 8.176 8.176 0 01.748-3.473 7.17 7.17 0 012.204-2.71 10.683 10.683 0 013.262-1.737 13.963 13.963 0 014.275-.635 13.004 13.004 0 015.444 1.08c1.392.709 2.7 1.561 3.9 2.541l-3.614 4.744a12.723 12.723 0 00-2.887-1.716 7.22 7.22 0 00-2.843-.614c-2.027 0-3.04.706-3.04 2.118-.014.206.018.413.094.607.076.193.194.369.346.515.334.353.729.647 1.168.869.549.28 1.116.528 1.697.74l1.983.742c.86.339 1.741.72 2.6 1.122.85.427 1.636.96 2.337 1.589a7.106 7.106 0 011.807 2.477c.41.96.605 1.992.573 3.028a8.467 8.467 0 01-.727 3.473 7.33 7.33 0 01-2.204 2.796 10.52 10.52 0 01-3.504 1.884c-1.517.472-3.1.715-4.694.72zm28.319 0a15.091 15.091 0 01-5.4-.953 12.25 12.25 0 01-4.407-2.816 12.867 12.867 0 01-2.91-4.51 17.126 17.126 0 01-1.035-6.057 15.896 15.896 0 011.102-5.993 14.317 14.317 0 012.975-4.532 12.687 12.687 0 014.055-2.837c1.545-.657 3.215-.996 4.904-.996s3.359.34 4.903.996a9.97 9.97 0 013.593 2.753 11.848 11.848 0 012.203 4.235c.488 1.696.725 3.45.706 5.21.045.705.045 1.412 0 2.117a10.595 10.595 0 01-.22 1.503H58.82a6.642 6.642 0 002.425 4.384 7.389 7.389 0 004.606 1.398c2.09-.047 4.12-.68 5.84-1.822l2.667 4.913a17.417 17.417 0 01-4.606 2.266 16 16 0 01-4.981.741zM58.754 18.36h9.764a6.166 6.166 0 00-1.036-3.748 3.994 3.994 0 00-3.571-1.44 4.976 4.976 0 00-3.371 1.27 6.433 6.433 0 00-1.874 3.918h.089zm22.789 16.666V0h12.165a32.13 32.13 0 015.157.402c1.462.217 2.868.699 4.143 1.42a7.575 7.575 0 012.777 2.689 7.934 7.934 0 01.992 4.235 9.6 9.6 0 01-.309 2.372 9.575 9.575 0 01-.926 2.117 8.488 8.488 0 01-1.454 1.843 5.02 5.02 0 01-1.939 1.164v.233a8.506 8.506 0 012.512.996 7.916 7.916 0 012.005 1.694 7.132 7.132 0 011.323 2.393 9.577 9.577 0 01.507 3.155 9.34 9.34 0 01-1.08 4.616 9.06 9.06 0 01-2.931 3.198 13.49 13.49 0 01-4.408 1.885c-1.765.427-3.58.633-5.4.614H81.542zm8.021-21.007h3.77a6.656 6.656 0 004.275-1.122 3.487 3.487 0 001.013-1.356 3.52 3.52 0 00.33-1.651 3.234 3.234 0 00-.286-1.652 3.16 3.16 0 00-1.08-1.25 8.062 8.062 0 00-4.209-.868h-3.79l-.023 7.899zm0 14.823h4.54c4.408 0 6.612-1.588 6.612-4.743a3.51 3.51 0 00-.353-1.885 3.647 3.647 0 00-1.19-1.355 9.597 9.597 0 00-4.958-.974h-4.628l-.023 8.957zm29.003 6.84a4.537 4.537 0 01-1.895-.36 4.719 4.719 0 01-1.587-1.1 4.933 4.933 0 01-1.036-1.674 5.281 5.281 0 01-.352-1.948c-.002-.67.11-1.334.33-1.97a5.12 5.12 0 011.08-1.693c.446-.462.986-.83 1.587-1.08a4.673 4.673 0 011.873-.445c.646 0 1.284.13 1.874.381a4.956 4.956 0 011.586 1.08 5.051 5.051 0 011.058 1.694c.242.63.354 1.299.331 1.97a5.027 5.027 0 01-1.389 3.62 4.398 4.398 0 01-1.586 1.102 4.405 4.405 0 01-1.874.36v.063zm-103.14-27v16.116a4.143 4.143 0 01-1.19 2.9c-.367.374-.81.672-1.3.876a4.067 4.067 0 01-3.108 0 3.937 3.937 0 01-1.3-.875 4.143 4.143 0 01-1.19-2.901V8.682h-7.34v15.84c-.004 3.012 1.186 5.913 3.329 8.11a11.003 11.003 0 003.648 2.483c1.38.579 2.868.88 4.374.885a11.39 11.39 0 004.362-.89 11.031 11.031 0 003.638-2.477c2.142-2.198 3.332-5.099 3.327-8.11V8.682h-7.25z"/><path fill="#455AFF" d="M152.727 27.678h-11.328l-2.204 6.204h-6.81L144.044 3.77h5.994l11.725 30.113h-6.876l-2.16-6.204zm-9.476-5.02h7.845l-4.055-11.265-3.79 11.266zm27.9.636v10.588h-6.457V3.77h12.209c2.144-.04 4.269.387 6.215 1.25a9.344 9.344 0 014.21 3.452 9.365 9.365 0 011.454 5.188 8.369 8.369 0 01-.743 3.848 8.713 8.713 0 01-2.43 3.14c-2.527 1.834-5.655 2.736-8.816 2.541l-5.642.106zm0-5.019h5.752a5.813 5.813 0 003.813-1.186 4.21 4.21 0 001.061-1.507c.236-.57.341-1.183.306-1.796a4.792 4.792 0 00-.313-1.92 4.947 4.947 0 00-1.054-1.659 5.17 5.17 0 00-1.722-1.077 5.327 5.327 0 00-2.024-.342h-5.819v9.487zM200 33.882h-6.457V3.77H200v30.113z"/></svg>