<svg width="64" height="18" fill="none" xmlns="http://www.w3.org/2000/svg"><path d="M18.902 17.841a8.64 8.64 0 01-2.845-.519 8.965 8.965 0 01-2.537-1.387l1.874-2.53c.556.427 1.17.783 1.829 1.059a4.745 4.745 0 001.794.36c.474.043.95-.066 1.348-.307a.974.974 0 00.332-.371 1.16 1.16 0 00.103-.477.873.873 0 00-.24-.593 2.557 2.557 0 00-.652-.487 7.104 7.104 0 00-.925-.402c-.343-.116-.686-.254-1.04-.392-.355-.137-.88-.37-1.303-.582a5.596 5.596 0 01-1.143-.815 3.93 3.93 0 01-.88-1.133 3.13 3.13 0 01-.343-1.504 3.97 3.97 0 01.389-1.736 3.612 3.612 0 011.142-1.356 5.601 5.601 0 011.692-.868 7.48 7.48 0 012.217-.317 6.958 6.958 0 012.823.54c.722.354 1.4.78 2.023 1.27l-1.875 2.372a6.646 6.646 0 00-1.497-.858 3.853 3.853 0 00-1.474-.307c-1.051 0-1.577.353-1.577 1.059a.682.682 0 00.05.303c.038.097.1.185.178.258.173.177.378.323.606.434.285.14.579.265.88.37l1.029.371c.445.17.902.36 1.348.562.44.213.848.48 1.211.794.405.346.725.768.938 1.239.212.48.314.995.297 1.514a4.107 4.107 0 01-.377 1.736 3.685 3.685 0 01-1.143 1.398c-.534.42-1.151.74-1.817.942a8.58 8.58 0 01-2.434.36zm14.686 0a8.088 8.088 0 01-2.8-.476 6.388 6.388 0 01-2.286-1.408 6.405 6.405 0 01-1.509-2.256 8.275 8.275 0 01-.537-3.028 7.7 7.7 0 01.572-2.996A7.14 7.14 0 0128.57 5.41a6.597 6.597 0 012.102-1.42 6.714 6.714 0 012.543-.497c.876 0 1.742.17 2.543.498.727.32 1.365.79 1.863 1.376a5.866 5.866 0 011.143 2.118c.252.848.375 1.725.365 2.605a7.96 7.96 0 010 1.058 5.04 5.04 0 01-.114.752h-8.514a3.29 3.29 0 001.257 2.192 3.93 3.93 0 002.389.699 5.86 5.86 0 003.028-.91l1.383 2.456a9.2 9.2 0 01-2.389 1.133 8.582 8.582 0 01-2.582.37zm-3.12-8.661h5.062a3.001 3.001 0 00-.537-1.874 2.107 2.107 0 00-1.851-.72 2.639 2.639 0 00-1.749.635 3.172 3.172 0 00-.971 1.959h.046zm11.817 8.333V0h6.308a17.24 17.24 0 012.674.201 6.376 6.376 0 012.149.71 3.875 3.875 0 011.44 1.344 3.86 3.86 0 01.514 2.118c-.002.4-.056.798-.16 1.186a4.756 4.756 0 01-.48 1.059 4.285 4.285 0 01-.754.92 2.62 2.62 0 01-1.006.583v.117a4.5 4.5 0 011.303.497c.395.227.747.513 1.04.847.308.356.54.762.685 1.197.18.51.268 1.042.263 1.578a4.54 4.54 0 01-.56 2.308 4.596 4.596 0 01-1.52 1.599 7.136 7.136 0 01-2.285.942c-.915.213-1.857.316-2.8.307h-6.811zm4.16-10.504h1.954a3.547 3.547 0 002.217-.56c.232-.184.412-.416.526-.678.125-.26.184-.542.17-.826a1.573 1.573 0 00-.148-.826 1.601 1.601 0 00-.56-.625 4.315 4.315 0 00-2.182-.434h-1.966l-.012 3.95zm0 7.412h2.354c2.285 0 3.428-.794 3.428-2.372a1.705 1.705 0 00-.183-.942 1.854 1.854 0 00-.617-.678 5.136 5.136 0 00-2.571-.487h-2.4l-.012 4.48zm15.039 3.42a2.443 2.443 0 01-2.343-1.567 2.551 2.551 0 01-.182-.974 2.912 2.912 0 01.17-.985c.126-.313.317-.6.56-.847.232-.23.512-.414.824-.54.303-.138.634-.213.971-.222a2.55 2.55 0 011.794.73 2.522 2.522 0 01.72 1.832 2.465 2.465 0 01-.72 1.81 2.287 2.287 0 01-.822.551c-.305.128-.638.19-.972.18v.032zM8 4.341V12.4a2.038 2.038 0 01-1.291 1.888 2.172 2.172 0 01-1.612 0 2.043 2.043 0 01-.674-.438 2.036 2.036 0 01-.617-1.45V4.34H0v7.92c-.003 1.506.615 2.956 1.726 4.056a5.73 5.73 0 001.891 1.24c.716.29 1.488.44 2.269.443a6.103 6.103 0 002.262-.445 5.731 5.731 0 001.886-1.238c1.111-1.1 1.728-2.55 1.726-4.056V4.34H8z" fill="#fff"/></svg>